# xmcd CD database file
#
# Track frame offsets:
#	150
#	1095
#	22472
#	44998
#	65083
#	78349
#	94715
#	96553
#	115868
#	123479
#	125274
#	145466
#	165366
#	169657
#	187267
#	198549
#	211773
#	229066
#
# Disc length: 3153 seconds
#
# Revision: 0
# Processed by: cddbd v1.5.2PL0 Copyright (c) Steve Scherf et al.
# Submitted via: CDex 1.70beta2
#
DISCID=080c4f12
DTITLE=Lawaka - Lawaka
DYEAR=2007
DGENRE=Jazz
TTITLE0=###!
TTITLE1=Hardcornemuse
TTITLE2=Ornythorink Sound System
TTITLE3=Le Maitre du Ruban
TTITLE4=Beastigueti
TTITLE5=Sufer Beach
TTITLE6=SubDisco
TTITLE7=Mawaka
TTITLE8=Pose
TTITLE9=###?
TTITLE10=Kadavrexquis
TTITLE11=Amstrong
TTITLE12=Coin Coin
TTITLE13=Bionik
TTITLE14=Infffeeeect!
TTITLE15=SkyFuzz
TTITLE16=Rapystrap
TTITLE17=###.
EXTD=YEAR: 2007
EXTT0=
EXTT1=
EXTT2=
EXTT3=
EXTT4=
EXTT5=
EXTT6=
EXTT7=
EXTT8=
EXTT9=
EXTT10=
EXTT11=
EXTT12=
EXTT13=
EXTT14=
EXTT15=
EXTT16=
EXTT17=
PLAYORDER=
